<?xml version="1.0" standalone="no"?><!DOCTYPE svg PUBLIC "-//W3C//DTD SVG 1.1//EN" "http://www.w3.org/Graphics/SVG/1.1/DTD/svg11.dtd"><svg t="1723696497151" class="icon" viewBox="0 0 1024 1024" version="1.1" xmlns="http://www.w3.org/2000/svg" p-id="16248" xmlns:xlink="http://www.w3.org/1999/xlink" width="200" height="200"><path d="M448 18.204444A237.112889 237.112889 0 0 0 210.488889 254.976a237.112889 237.112889 0 0 0 237.511111 236.657778 237.112889 237.112889 0 0 0 237.511111-236.657778A237.112889 237.112889 0 0 0 448 18.204444z m0 91.022223a146.090667 146.090667 0 0 1 146.488889 145.749333 146.090667 146.090667 0 0 1-146.488889 145.635556A146.090667 146.090667 0 0 1 301.511111 255.032889 146.090667 146.090667 0 0 1 448 109.226667zM448.284444 528.156444c76.231111 0 149.674667 19.797333 214.357334 57.002667a45.511111 45.511111 0 0 1-45.283556 78.904889 338.318222 338.318222 0 0 0-169.130666-44.942222c-187.164444 0-338.716444 150.926222-338.716445 336.952889a45.511111 45.511111 0 1 1-91.022222 0c0-236.373333 192.455111-427.918222 429.738667-427.918223z" fill="#2c2c2c" p-id="16249"></path><path d="M806.968889 684.088889a39.822222 39.822222 0 0 1 39.822222 39.822222v90.453333h91.192889a39.651556 39.651556 0 0 1 0 79.303112h-91.249778l0.056889 90.510222a39.822222 39.822222 0 1 1-79.644444 0v-90.510222h-91.192889a39.651556 39.651556 0 0 1 0-79.303112h91.136l0.056889-90.453333a39.822222 39.822222 0 0 1 39.822222-39.822222z" fill="#2c2c2c" p-id="16250"></path></svg>