<?xml version="1.0" standalone="no"?><!DOCTYPE svg PUBLIC "-//W3C//DTD SVG 1.1//EN" "http://www.w3.org/Graphics/SVG/1.1/DTD/svg11.dtd"><svg t="1723696450322" class="icon" viewBox="0 0 1024 1024" version="1.1" xmlns="http://www.w3.org/2000/svg" p-id="16033" xmlns:xlink="http://www.w3.org/1999/xlink" width="200" height="200"><path d="M955.52 855.68l-88.96-156.8a417.92 417.92 0 1 0-113.28 158.72l166.4 44.8a29.44 29.44 0 0 0 24.32 0 31.36 31.36 0 0 0 11.52-46.72z m-218.24-68.48l-25.6 22.4a354.56 354.56 0 1 1 95.36-134.4l-11.52 28.8 64 116.48z" fill="#2c2c2c" p-id="16034"></path><path d="M608 512H512V416a32 32 0 0 0-64 0V512H352a32 32 0 0 0 0 64H448v96a32 32 0 0 0 64 0V576h96a32 32 0 0 0 0-64z" fill="#2c2c2c" p-id="16035"></path></svg>