<?xml version="1.0" standalone="no"?><!DOCTYPE svg PUBLIC "-//W3C//DTD SVG 1.1//EN" "http://www.w3.org/Graphics/SVG/1.1/DTD/svg11.dtd"><svg t="1723134522178" class="icon" viewBox="0 0 1024 1024" version="1.1" xmlns="http://www.w3.org/2000/svg" p-id="5368" xmlns:xlink="http://www.w3.org/1999/xlink" width="200" height="200"><path d="M766.72 837.12H512c-180.48 0-326.4-144.64-326.4-323.84C185.6 332.8 331.52 186.88 512 186.88S838.4 332.8 838.4 513.28c0 94.72-40.96 184.32-111.36 245.76 2.56 8.96 25.6 32 48.64 49.92 5.12 3.84 7.68 10.24 5.12 16.64-1.28 7.68-7.68 11.52-14.08 11.52zM512 216.32c-163.84 0-296.96 133.12-296.96 296.96C215.04 674.56 348.16 806.4 512 806.4h213.76c-15.36-14.08-28.16-32-29.44-47.36 0-8.96 2.56-16.64 8.96-21.76 65.28-56.32 102.4-138.24 102.4-224 1.28-163.84-131.84-296.96-295.68-296.96z" fill="#2c2c2c" p-id="5369"></path><path d="M613.12 578.56c-7.68 0-15.36-6.4-15.36-15.36v-103.68c0-7.68 6.4-15.36 15.36-15.36 7.68 0 15.36 6.4 15.36 15.36V563.2c-1.28 8.96-7.68 15.36-15.36 15.36zM428.8 578.56c-7.68 0-15.36-6.4-15.36-15.36v-103.68c0-7.68 6.4-15.36 15.36-15.36s15.36 6.4 15.36 15.36V563.2c0 8.96-6.4 15.36-15.36 15.36z" fill="inhert" p-id="5370"></path></svg>