<?xml version="1.0" standalone="no"?><!DOCTYPE svg PUBLIC "-//W3C//DTD SVG 1.1//EN" "http://www.w3.org/Graphics/SVG/1.1/DTD/svg11.dtd"><svg t="1723881784630" class="icon" viewBox="0 0 1028 1024" version="1.1" xmlns="http://www.w3.org/2000/svg" p-id="26593" xmlns:xlink="http://www.w3.org/1999/xlink" width="200.78125" height="200"><path d="M888.183467 451.669333l-0.017067-2.2528c-0.554667-41.898667-16.695467-76.539733-47.7824-100.992l-0.9984-0.776533-1.117867-0.917333a134.2976 134.2976 0 0 0-84.650666-30.058667l-196.616534-0.0128 0.9088-1.0624a135.082667 135.082667 0 0 0 26.837334-51.6992 135.377067 135.377067 0 0 0-13.457067-102.600533 134.9248 134.9248 0 0 0-34.670933-39.6032 134.4 134.4 0 0 0-47.104-23.253334 134.050133 134.050133 0 0 0-52.343467-3.413333l-2.619733 0.375467a134.267733 134.267733 0 0 0-44.757334 15.261866l-0.938666 0.533334-9.634134 4.586666-5.277866 2.530134-30.6176 14.929066-29.141334 14.656-27.549866 14.365867-5.538134 2.9568-7.9232 4.2752-24.994133 13.892267-7.1808 4.117333-6.929067 4.027733-3.383466 1.992534-7.010134 4.181333-22.037333 13.610667C62.2592 300.010667 9.732267 387.016533 9.732267 526.869333a361.3568 361.3568 0 0 0 27.409066 138.056534 360.661333 360.661333 0 0 0 78.0288 116.992 359.722667 359.722667 0 0 0 116.7104 78.122666A359.0528 359.0528 0 0 0 369.489067 887.466667h150.8864l10.3168-0.456534 0.750933-0.064a134.382933 134.382933 0 0 0 83.259733-38.954666 135.2192 135.2192 0 0 0 39.479467-95.522134l-0.008533-0.785066c-0.093867-5.687467-1.207467-12.189867-3.498667-20.398934l-0.861867-2.9696-0.96-3.1232-0.512-1.621333-1.109333-3.362133-1.216-3.537067-1.3184-3.712-1.92-5.256533 1.902933-1.3824a134.7072 134.7072 0 0 0 15.057067-13.000534 135.236267 135.236267 0 0 0 39.483733-95.530666l-0.021333-2.530134a135.458133 135.458133 0 0 0-0.354133-7.552l-0.085334-1.045333h55.607467l10.3168-0.452267 0.750933-0.064a134.3616 134.3616 0 0 0 81.6896-37.405866l3.054934-2.9952 9.890133-9.489067 1.655467-1.634133c19.579733-19.882667 26.453333-41.245867 26.453333-82.952534z m-68.266667 0v3.0464l-0.046933 4.181334-0.081067 3.7504-0.0768 2.269866-0.098133 2.0992-0.183467 2.850134-0.1536 1.719466-0.174933 1.578667-0.098134 0.7424-0.213333 1.3952a37.973333 37.973333 0 0 1-0.119467 0.6528l-0.256 1.2288c-0.0896 0.392533-0.187733 0.768-0.285866 1.134933l-0.315734 1.041067c-0.055467 0.170667-0.110933 0.3328-0.170666 0.490667l-0.362667 0.930133-0.3968 0.866133-0.426667 0.810667-0.469333 0.768-0.503467 0.7296c-0.085333 0.119467-0.170667 0.238933-0.264533 0.354133l-0.558933 0.699734-0.597334 0.682666-0.64 0.686934-1.216 1.2032-10.325333 9.898666-2.7392 2.688a66.107733 66.107733 0 0 1-38.011733 17.800534l-1.130667 0.1152-7.112533 0.311466h-153.698134l24.6912 49.3952a67.080533 67.080533 0 0 1-12.458666 77.2992 66.24 66.24 0 0 1-23.428267 15.159467l-32.597333 12.334933 14.869333 36.9664 3.4048 8.6272 2.286933 5.922134 2.065067 5.474133 1.847467 5.034667 1.109333 3.1232 1.024 2.935466 0.989867 2.9568 0.861866 2.696534c0.136533 0.426667 0.264533 0.840533 0.384 1.245866l0.674134 2.282667 0.285866 1.0368 0.503467 1.975467 0.196267 0.874666 0.017066-1.2672c0 17.757867-7.035733 34.7776-19.528533 47.296l-1.237333 1.207467a66.112 66.112 0 0 1-38.011734 17.796267l-1.1392 0.1152-7.1936 0.315733H369.489067a290.786133 290.786133 0 0 1-111.445334-22.208 291.456 291.456 0 0 1-94.557866-63.304533 292.3904 292.3904 0 0 1-63.2576-94.848 293.085867 293.085867 0 0 1-22.229334-111.970134l0.0128-3.447466c0.789333-113.250133 40.9728-178.594133 160.277334-254.506667l20.881066-12.893867a1139.575467 1139.575467 0 0 1 22.485334-13.1328l24.401066-13.568 7.2832-3.925333 5.111467-2.730667 26.705067-13.9264 28.4672-14.3232 30.0672-14.656 11.562666-5.5296 5.248-2.491733 1.216-0.704a65.9968 65.9968 0 0 1 24.4224-8.328533 65.813333 65.813333 0 0 1 25.7024 1.672533 66.133333 66.133333 0 0 1 23.1808 11.447467 66.641067 66.641067 0 0 1 17.122134 19.562666 67.1232 67.1232 0 0 1-4.868267 74.248534l-1.3056 1.642666a66.4832 66.4832 0 0 1-12.074667 11.477334l-1.326933 0.938666-5.3376 3.370667-169.122133 97.847467 435.502933 0.0256c15.530667 0 30.5536 5.486933 42.461867 15.479466l0.618666 0.520534 0.64 0.490666c15.291733 11.648 22.583467 27.306667 22.583467 50.24z" fill="#515151" p-id="26594"></path><path d="M1020.945067 463.671467c0 82.7904-37.922133 147.165867-111.061334 188.9792a34.133333 34.133333 0 1 1-33.877333-59.264c52.0192-29.738667 76.672-71.594667 76.672-129.7152 0-59.0592-25.668267-106.0224-79.3728-143.803734a34.133333 34.133333 0 0 1 39.278933-55.8336c71.4496 50.269867 108.360533 117.789867 108.360534 199.637334z" fill="#515151" p-id="26595"></path></svg>