<?xml version="1.0" standalone="no"?><!DOCTYPE svg PUBLIC "-//W3C//DTD SVG 1.1//EN" "http://www.w3.org/Graphics/SVG/1.1/DTD/svg11.dtd"><svg t="1724079073930" class="icon" viewBox="0 0 1024 1024" version="1.1" xmlns="http://www.w3.org/2000/svg" p-id="8934" xmlns:xlink="http://www.w3.org/1999/xlink" width="200" height="200"><path d="M469.333333 512v256H213.333333v-256h256z m298.666667 170.666667v85.333333h-85.333333v-85.333333h85.333333z m-170.666667 0v85.333333h-85.333333v-85.333333h85.333333z m-213.333333-85.333334H298.666667v85.333334h85.333333v-85.333334z m213.333333-85.333333v85.333333h85.333334v-85.333333h85.333333v128h-85.333333v42.666667h-85.333334v-42.666667h-85.333333v-128h85.333333z m-128-298.666667v256H213.333333V213.333333h256z m298.666667 0v256h-256V213.333333h256zM384 298.666667H298.666667v85.333333h85.333333V298.666667z m298.666667 0h-85.333334v85.333333h85.333334V298.666667z" fill="#444444" p-id="8935"></path></svg>