<?xml version="1.0" standalone="no"?><!DOCTYPE svg PUBLIC "-//W3C//DTD SVG 1.1//EN" "http://www.w3.org/Graphics/SVG/1.1/DTD/svg11.dtd"><svg t="1723881536450" class="icon" viewBox="0 0 1024 1024" version="1.1" xmlns="http://www.w3.org/2000/svg" p-id="18019" xmlns:xlink="http://www.w3.org/1999/xlink" width="200" height="200"><path d="M650.24 647.168c-22.528 0-40.96-18.432-40.96-40.96v-40.96c0-22.528 18.432-40.96 40.96-40.96 22.528 0 40.96 18.432 40.96 40.96v40.96c0 22.528-18.432 40.96-40.96 40.96z m-276.48 0c-22.528 0-40.96-18.432-40.96-40.96v-40.96c0-22.528 18.432-40.96 40.96-40.96 22.528 0 40.96 18.432 40.96 40.96v40.96c0 22.528-18.432 40.96-40.96 40.96z" p-id="18020" fill="inhert"></path><path d="M776.192 990.208H247.808c-90.112 0-163.84-73.728-163.84-163.84v-162.816C83.968 428.032 275.456 235.52 512 235.52c236.544 0 428.032 192.512 428.032 428.032v161.792c0 91.136-72.704 164.864-163.84 164.864zM512 317.44c-191.488 0-346.112 155.648-346.112 346.112v161.792a82.176 82.176 0 0 0 81.92 81.92h529.408a82.176 82.176 0 0 0 81.92-81.92v-161.792C858.112 473.088 703.488 317.44 512 317.44z" p-id="18021" fill="inhert"></path><path d="M316.416 354.304c-19.456 11.264-45.056 5.12-56.32-14.336l-92.16-157.696c-11.264-19.456-5.12-45.056 14.336-56.32 19.456-11.264 45.056-5.12 56.32 14.336l92.16 157.696c11.264 19.456 5.12 45.056-14.336 56.32z" p-id="18022" fill="inhert"></path><path d="M129.92 197.824a81.92 81.92 0 1 0 141.44-82.688 81.92 81.92 0 1 0-141.44 82.688z m588.928 156.48c19.456 11.264 45.056 5.12 56.32-14.336l92.16-157.696c11.264-19.456 5.12-45.056-14.336-56.32-19.456-11.264-45.056-5.12-56.32 14.336l-92.16 157.696c-12.288 19.456-5.12 45.056 14.336 56.32z" p-id="inhert" fill="inhert"></path><path d="M792.928 226.976a81.92 81.92 0 1 0 82.688-141.44 81.92 81.92 0 0 0-82.688 141.44z" p-id="18024" fill="inhert"></path></svg>